<svg width="40" height="40" viewBox="0 0 40 40" fill="none" xmlns="http://www.w3.org/2000/svg">
<circle cx="20" cy="20" r="20" fill="#F6F7FA"/>
<path d="M20.001 9.68652C21.1014 9.68652 22.0244 10.4535 22.0244 11.4287V12.8076C22.0244 13.1046 21.7485 13.3184 21.4434 13.3184C21.1382 13.3182 20.8633 13.1036 20.8633 12.8076V11.4287C20.8633 11.0457 20.491 10.707 20.001 10.707C19.5111 10.7072 19.1396 11.0458 19.1396 11.4287V12.8076C19.1396 13.1037 18.8638 13.3184 18.5586 13.3184C18.2536 13.3182 17.9785 13.1045 17.9785 12.8076V11.4287C17.9785 10.4536 18.9007 9.68667 20.001 9.68652Z" fill="#929DB2" stroke="#929DB2" stroke-width="0.2"/>
<path d="M22.3574 26.9709C22.6293 26.9711 22.8495 27.1912 22.8496 27.4631C22.8496 29.0347 21.5717 30.3137 20 30.3137C18.4283 30.3137 17.1504 29.0348 17.1504 27.4631C17.1505 27.1912 17.3707 26.9711 17.6426 26.9709C17.9146 26.9709 18.1356 27.1911 18.1357 27.4631C18.1357 28.4906 18.9725 29.3273 20 29.3273C21.0275 29.3273 21.8643 28.4906 21.8643 27.4631C21.8644 27.1911 22.0854 26.9709 22.3574 26.9709Z" fill="#929DB2" stroke="#929DB2" stroke-width="0.2"/>
<path d="M20.002 12.8281C23.0899 12.8283 25.6016 15.3397 25.6016 18.4277V20.8145C25.6016 22.2993 26.2112 23.7057 27.2842 24.7178L27.5049 24.9141V24.915C27.7953 25.1639 27.9589 25.5172 27.959 25.8916C27.959 26.5964 27.3863 27.1707 26.6807 27.1709H13.3232C12.6182 27.1709 12.0449 26.5966 12.0449 25.8916C12.045 25.5176 12.2077 25.1635 12.4922 24.9199L12.7139 24.7217C13.792 23.7049 14.4014 22.2984 14.4014 20.8145V18.4277C14.4014 15.3396 16.9139 12.8281 20.002 12.8281ZM20.002 13.8135C17.4573 13.8135 15.3877 15.883 15.3877 18.4277V20.8145C15.3877 22.5717 14.6661 24.2363 13.3965 25.4346L13.1357 25.667C13.0674 25.7252 13.0304 25.8068 13.0303 25.8916C13.0303 26.0532 13.1616 26.1846 13.3232 26.1846H26.6807C26.8421 26.1843 26.9727 26.0531 26.9727 25.8916C26.9725 25.8065 26.9357 25.7255 26.8711 25.6699L26.6094 25.4365C25.3378 24.2363 24.6162 22.571 24.6162 20.8145V18.4277C24.6162 15.8831 22.5465 13.8136 20.002 13.8135Z" fill="#929DB2" stroke="#929DB2" stroke-width="0.2"/>
</svg>
