<svg width="24" height="24" viewBox="0 0 24 24" fill="none" xmlns="http://www.w3.org/2000/svg">
<g clip-path="url(#clip0_24_1535)">
<path d="M12 24C18.6274 24 24 18.6274 24 12C24 5.37258 18.6274 0 12 0C5.37258 0 0 5.37258 0 12C0 18.6274 5.37258 24 12 24Z" fill="white"/>
<path d="M10.0293 16.3896L16.3199 23.1599C20.2799 21.7199 22.6799 18.3599 23.6399 14.9999C23.6399 14.8863 23.7599 14.5135 23.7599 14.3999L17.8345 8.75241L10.0293 16.3896Z" fill="white"/>
<path d="M12.228 14.0385C12.6271 14.4376 12.6271 15.1217 12.228 15.5207L11.4014 16.3473C11.0024 16.7464 10.3183 16.7464 9.91924 16.3473L6.29929 12.6989C5.90024 12.2998 5.90024 11.6157 6.29929 11.2167L7.12589 10.3901C7.52494 9.99104 8.20903 9.99104 8.60808 10.3901L12.228 14.0385Z" fill="#00A055"/>
<path d="M15.3923 7.73929C15.7914 7.34024 16.4755 7.34024 16.8745 7.73929L17.7011 8.56589C18.1002 8.96494 18.1002 9.64903 17.7011 10.0481L11.4303 16.2904C11.0313 16.6894 10.3472 16.6894 9.94816 16.2904L9.12155 15.4638C8.7225 15.0647 8.7225 14.3806 9.12155 13.9816L15.3923 7.73929Z" fill="#00A055"/>
</g>
<defs>
<clipPath id="clip0_24_1535">
<rect width="24" height="24" fill="white"/>
</clipPath>
</defs>
</svg>
