<svg width="40" height="40" viewBox="0 0 40 40" fill="none" xmlns="http://www.w3.org/2000/svg">
<circle cx="20" cy="20" r="20" fill="#F6F7FA"/>
<path d="M21.0449 9.9502C26.4794 9.95559 30.8799 14.3722 30.8691 19.8066C30.8689 25.2568 26.4365 29.6892 20.9863 29.6895C19.8699 29.6948 18.7642 29.5017 17.7119 29.1221L12.4795 30.042H12.4785C12.3686 30.0593 12.2523 30.0478 12.1465 30.001V30.002C11.8527 29.8786 11.712 29.532 11.8408 29.2334L13.2598 25.9375C11.8826 24.2021 11.1299 22.052 11.1299 19.8379C11.1301 14.3876 15.5624 9.95508 21.0127 9.95508H21.0195L21.0244 9.9502H21.0449ZM21.0176 11.1221C16.2173 11.1223 12.3066 15.0274 12.3066 19.833C12.3066 20.9145 12.5091 21.9853 12.9033 22.9922C13.2549 23.8925 13.7561 24.7243 14.3848 25.4541C14.531 25.6241 14.5661 25.8637 14.4785 26.0684L13.3467 28.7002L17.6709 27.9453H17.6719C17.7753 27.9281 17.8812 27.933 17.9824 27.9746H17.9814C18.9457 28.3368 19.9632 28.5225 20.9912 28.5225C25.7915 28.5225 29.7019 24.6176 29.7021 19.8066V19.7744C29.6968 14.9848 25.8081 11.1116 21.0186 11.1221H21.0176Z" fill="#929DB2" stroke="#929DB2" stroke-width="0.1"/>
<path d="M20.6016 17.4902C20.9238 17.4903 21.1875 17.7539 21.1875 18.0761C21.1874 18.3983 20.9237 18.662 20.6016 18.6621H17.708C17.3858 18.6621 17.1222 18.3983 17.1221 18.0761C17.1221 17.7538 17.3857 17.4902 17.708 17.4902H20.6016Z" fill="#929DB2" stroke="#929DB2" stroke-width="0.1"/>
<path d="M24.3252 20.7649C24.6475 20.7649 24.9111 21.0285 24.9111 21.3508C24.911 21.673 24.6474 21.9367 24.3252 21.9367H17.6807C17.3584 21.9367 17.0949 21.673 17.0947 21.3508C17.0947 21.0285 17.3583 20.7649 17.6807 20.7649H24.3252Z" fill="#929DB2" stroke="#929DB2" stroke-width="0.1"/>
</svg>
