<svg width="40" height="40" viewBox="0 0 40 40" fill="none" xmlns="http://www.w3.org/2000/svg">
<circle cx="20" cy="20" r="20" fill="#F6F7FA"/>
<path d="M20.0013 20.6872C17.0955 20.6872 14.7305 18.3222 14.7305 15.4163C14.7305 12.5105 17.0955 10.1455 20.0013 10.1455C22.9071 10.1455 25.2721 12.5105 25.2721 15.4163C25.2721 18.3222 22.9071 20.6872 20.0013 20.6872ZM20.0013 11.5205C17.8563 11.5205 16.1055 13.2713 16.1055 15.4163C16.1055 17.5613 17.8563 19.3122 20.0013 19.3122C22.1463 19.3122 23.8971 17.5613 23.8971 15.4163C23.8971 13.2713 22.1463 11.5205 20.0013 11.5205Z" fill="#929DB2"/>
<path d="M27.8752 29.8542C27.4994 29.8542 27.1877 29.5425 27.1877 29.1667C27.1877 26.0042 23.9612 23.4375 20.0012 23.4375C16.0411 23.4375 12.8145 26.0042 12.8145 29.1667C12.8145 29.5425 12.5028 29.8542 12.127 29.8542C11.7511 29.8542 11.4395 29.5425 11.4395 29.1667C11.4395 25.2525 15.2803 22.0625 20.0012 22.0625C24.722 22.0625 28.5627 25.2525 28.5627 29.1667C28.5627 29.5425 28.2511 29.8542 27.8752 29.8542Z" fill="#929DB2"/>
</svg>
